<svg xmlns="http://www.w3.org/2000/svg" viewBox="0 17.649999618530273 343.79998779296875 49.94999694824219" data-asc="1.1" width="343.79998779296875" height="49.94999694824219"><defs/><g fill="#000000"><g transform="translate(0, 0)"><path d="M18.45 55.50Q13.45 55.50 9.23 53.18Q5 50.85 2.50 46.55Q0 42.25 0 36.55Q0 30.80 2.50 26.53Q5 22.25 9.23 19.95Q13.45 17.65 18.45 17.65Q23.45 17.65 27.68 19.95Q31.90 22.25 34.40 26.53Q36.90 30.80 36.90 36.55Q36.90 42.25 34.40 46.55Q31.90 50.85 27.68 53.18Q23.45 55.50 18.45 55.50M18.45 50.45Q21.90 50.45 24.75 48.83Q27.60 47.20 29.27 44.08Q30.95 40.95 30.95 36.60Q30.95 32.20 29.27 29.08Q27.60 25.95 24.77 24.35Q21.95 22.75 18.45 22.75Q14.95 22.75 12.10 24.35Q9.25 25.95 7.60 29.08Q5.95 32.20 5.95 36.60Q5.95 40.95 7.65 44.08Q9.35 47.20 12.23 48.83Q15.10 50.45 18.45 50.45ZM52.95 55.50Q49.85 55.50 47.23 54.03Q44.60 52.55 43.02 49.83Q41.45 47.10 41.45 43.45Q41.45 38.00 44.50 34.73Q47.55 31.45 52.75 31.45Q55.65 31.45 58.05 32.88Q60.45 34.30 61.30 36.30L61.05 32.40L61.05 18.25L66.35 18.25L66.35 55.00L61.20 55.00L61.10 50.95Q60.25 52.75 58 54.13Q55.75 55.50 52.95 55.50M53.85 50.95Q56.70 50.95 58.65 48.98Q60.60 47.00 60.60 43.80L60.60 43.45Q60.60 41.30 59.70 39.60Q58.80 37.90 57.25 36.95Q55.70 36.00 53.85 36.00Q50.65 36.00 48.90 38.08Q47.15 40.15 47.15 43.45Q47.15 46.80 48.88 48.88Q50.60 50.95 53.85 50.95ZM80.10 55.70L70.60 32.05L76.70 32.05L81.60 46.65L82.70 50.20L83.80 46.65L88.95 32.05L94.85 32.05L80.75 67.60L75.15 67.60L80.10 55.70ZM106.25 55.50Q103.85 55.50 101.28 54.88Q98.70 54.25 97.60 53.40L99.40 49.15Q102.40 51.25 106.25 51.25Q110.10 51.25 110.10 49.00Q110.10 48.00 109.30 47.45Q108.50 46.90 106.45 46.15L104.55 45.45Q101.55 44.25 99.80 42.58Q98.05 40.90 98.05 38.15Q98.05 35.00 100.53 33.23Q103.00 31.45 107.15 31.45Q109.20 31.45 111.18 31.90Q113.15 32.35 114.20 33.05L112.25 37.35Q111.60 36.70 110.18 36.23Q108.75 35.75 107.00 35.75Q103.45 35.75 103.45 37.90Q103.45 39.10 104.40 39.73Q105.35 40.35 107.50 41.10Q107.70 41.15 109.05 41.65Q112.25 42.90 113.80 44.50Q115.35 46.10 115.35 48.60Q115.35 52.00 112.78 53.75Q110.20 55.50 106.25 55.50ZM128.85 55.50Q126.45 55.50 123.88 54.88Q121.30 54.25 120.20 53.40L122 49.15Q125 51.25 128.85 51.25Q132.70 51.25 132.70 49.00Q132.70 48.00 131.90 47.45Q131.10 46.90 129.05 46.15L127.15 45.45Q124.15 44.25 122.40 42.58Q120.65 40.90 120.65 38.15Q120.65 35.00 123.13 33.23Q125.60 31.45 129.75 31.45Q131.80 31.45 133.78 31.90Q135.75 32.35 136.80 33.05L134.85 37.35Q134.20 36.70 132.78 36.23Q131.35 35.75 129.60 35.75Q126.05 35.75 126.05 37.90Q126.05 39.10 127 39.73Q127.95 40.35 130.10 41.10Q130.30 41.15 131.65 41.65Q134.85 42.90 136.40 44.50Q137.95 46.10 137.95 48.60Q137.95 52.00 135.38 53.75Q132.80 55.50 128.85 55.50ZM154.40 55.50Q150.30 55.50 147.55 53.88Q144.80 52.25 143.50 49.53Q142.20 46.80 142.20 43.55Q142.20 39.90 143.72 37.15Q145.25 34.40 147.95 32.93Q150.65 31.45 154.05 31.45Q159.35 31.45 161.93 34.38Q164.50 37.30 164.50 42.60Q164.50 43.95 164.35 45.40L147.85 45.40Q148.40 48.45 150.03 49.80Q151.65 51.15 154.55 51.15Q156.95 51.15 158.50 50.75Q160.05 50.35 161.35 49.65L163 53.50Q161.75 54.30 159.60 54.90Q157.45 55.50 154.40 55.50M159.25 41.65Q159.30 38.55 157.90 37.28Q156.50 36.00 153.90 36.00Q148.65 36.00 147.85 41.65L159.25 41.65ZM176.75 55.70L167.25 32.05L173.35 32.05L178.25 46.65L179.35 50.20L180.45 46.65L185.60 32.05L191.50 32.05L177.40 67.60L171.80 67.60L176.75 55.70ZM219.60 39.55Q221.95 36.40 223.52 33.70Q225.10 31.00 225.10 28.70Q225.10 25.90 223.63 24.43Q222.15 22.95 219.20 22.95Q216.50 22.95 214.85 24.45Q213.20 25.95 212.10 28.10L207.45 25.60Q209.20 22.25 212.05 19.95Q214.90 17.65 219.35 17.65Q224.90 17.65 227.85 20.53Q230.80 23.40 230.80 28.05Q230.80 34.10 224.80 41.45L218 50.05L232.25 50.05L232.25 55.00L207.25 55.00L219.60 39.55ZM252.20 55.75Q245.30 55.75 242.05 50.45Q238.80 45.15 238.80 36.65Q238.80 27.90 241.95 22.78Q245.10 17.65 252.20 17.65Q265.55 17.65 265.55 36.65Q265.55 45.30 262.30 50.53Q259.05 55.75 252.20 55.75M252.20 50.65Q256.30 50.65 257.88 46.73Q259.45 42.80 259.45 36.65Q259.45 30.20 257.90 26.45Q256.35 22.70 252.20 22.70Q248.05 22.70 246.47 26.45Q244.90 30.20 244.90 36.65Q244.90 50.65 252.20 50.65ZM284.25 39.55Q286.60 36.40 288.18 33.70Q289.75 31.00 289.75 28.70Q289.75 25.90 288.28 24.43Q286.80 22.95 283.85 22.95Q281.15 22.95 279.50 24.45Q277.85 25.95 276.75 28.10L272.10 25.60Q273.85 22.25 276.70 19.95Q279.55 17.65 284 17.65Q289.55 17.65 292.50 20.53Q295.45 23.40 295.45 28.05Q295.45 34.10 289.45 41.45L282.65 50.05L296.90 50.05L296.90 55.00L271.90 55.00L284.25 39.55ZM315.55 55.75Q312.25 55.75 309.48 54.90Q306.70 54.05 304.80 52.40L307.35 47.70Q308.45 48.65 310.60 49.58Q312.75 50.50 315.40 50.50Q318.80 50.50 320.98 48.58Q323.15 46.65 323.15 43.35Q323.15 40.25 321.18 38.23Q319.20 36.20 314.80 36.20Q312.55 36.20 310.10 36.60Q307.65 37.00 306.65 37.55L307.40 18.25L326.25 18.25L326.25 23.15L312.85 23.15L312.35 31.85Q313.80 31.45 316.55 31.45Q322.35 31.45 325.68 34.48Q329.00 37.50 329.00 42.80Q329.00 46.60 327.43 49.55Q325.85 52.50 322.80 54.13Q319.75 55.75 315.55 55.75ZM340.20 55.50Q338.70 55.50 337.65 54.48Q336.60 53.45 336.60 51.95Q336.60 50.40 337.63 49.38Q338.65 48.35 340.20 48.35Q341.75 48.35 342.78 49.38Q343.80 50.40 343.80 51.95Q343.80 53.45 342.78 54.48Q341.75 55.50 340.20 55.50Z"/></g></g></svg>