<svg width="601.144970703125px" height="99.219921875px" xmlns="http://www.w3.org/2000/svg" viewBox="-50.57248535156248 25.3900390625 601.144970703125 99.219921875" style="background: rgba(0, 0, 0, 0);" preserveAspectRatio="xMidYMid"><defs>
  <filter id="editing-scratch" x="-100%" y="-100%" width="300%" height="300%">
    <!-- COLOR -->
    <feFlood flood-color="#ddd" flood-opacity="0.75" result="COLOR-blu"></feFlood>
    <feFlood flood-color="#666" flood-opacity="0.4" result="COLOR-red"></feFlood>
    <!-- COLOR END -->

    <!-- Texture -->
    <feTurbulence baseFrequency=".05" type="fractalNoise" numOctaves="3" seed="0" result="Texture_10"></feTurbulence>
    <feColorMatrix type="matrix" values="0 0 0 0 0,
    0 0 0 0 0,
    0 0 0 0 0,
    0 0 0 -2.1 1.1" in="Texture_10" result="Texture_20"></feColorMatrix>

    <feColorMatrix result="Texture_30" type="matrix" values="0 0 0 0 0,
    0 0 0 0 0,
    0 0 0 0 0,
    0 0 0 -1.7 1.8" in="Texture_10"></feColorMatrix>
    <!-- Texture -->

    <!-- FILL -->
    <feOffset dx="-3" dy="4" in="SourceAlpha" result="FILL_10"></feOffset>
    <feDisplacementMap scale="17" in="FILL_10" in2="Texture_10" result="FILL_20"></feDisplacementMap>
    <feComposite operator="in" in="Texture_30" in2="FILL_20" result="FILL_40"></feComposite>
    <feComposite operator="in" in="COLOR-blu" in2="FILL_40" result="FILL_50"></feComposite>
    <!-- FILL END-->

    <!-- OUTLINE -->
    <feMorphology operator="dilate" radius="3" in="SourceGraphic" result="OUTLINE_10"></feMorphology>
    <feComposite operator="out" in="OUTLINE_10" in2="SourceGraphic" result="OUTLINE_20"></feComposite>
    <feDisplacementMap scale="7" in="OUTLINE_20" in2="Texture_10" result="OUTLINE_30"></feDisplacementMap>
    <feComposite operator="arithmetic" k2="-1" k3="1" in="Texture_20" in2="OUTLINE_30" result="OUTLINE_40"></feComposite>
    <!-- OUTLINE END-->

    <!-- BEVEL OUTLINE -->
    <feConvolveMatrix order="8,8" divisor="1" kernelMatrix="1 0 0 0 0 0 0 0 0 1 0 0 0 0 0 0 0 0 1 0 0 0 0 0 0 0 0 1 0 0 0 0 0 0 0 0 1 0 0 0 0 0 0 0 0 1 0 0 0 0 0 0 0 0 1 0 0 0 0 0 0 0 0 1 " in="SourceGraphic" result="BEVEL_10"></feConvolveMatrix>
    <feMorphology operator="dilate" radius="2" in="BEVEL_10" result="BEVEL_20"></feMorphology>
    <feComposite operator="out" in="BEVEL_20" in2="BEVEL_10" result="BEVEL_30"></feComposite>
    <feDisplacementMap scale="7" in="BEVEL_30" in2="Texture_10" result="BEVEL_40"></feDisplacementMap>
    <feComposite operator="arithmetic" k2="-1" k3="1" in="Texture_20" in2="BEVEL_40" result="BEVEL_50"></feComposite>
    <feOffset dx="-7" dy="-7" in="BEVEL_50" result="BEVEL_60"></feOffset>
    <feComposite operator="out" in="BEVEL_60" in2="OUTLINE_10" result="BEVEL_70"></feComposite>
    <!-- BEVEL OUTLINE END -->

    <!-- BEVEL FILL -->
    <feOffset dx="-9" dy="-9" in="BEVEL_10" result="BEVEL-FILL_10"></feOffset>
    <feComposite operator="out" in="BEVEL-FILL_10" in2="OUTLINE_10" result="BEVEL-FILL_20"></feComposite>
    <feDisplacementMap scale="17" in="BEVEL-FILL_20" in2="Texture_10" result="BEVEL-FILL_30"></feDisplacementMap>
    <feComposite operator="in" in="COLOR-red" in2="BEVEL-FILL_30" result="BEVEL-FILL_50"></feComposite> <!-- -->
    <!-- BEVEL FILL END-->

    <feMerge result="merge2">
     <feMergeNode in="BEVEL-FILL_50"></feMergeNode>
     <feMergeNode in="BEVEL_70"></feMergeNode>
     <feMergeNode in="FILL_50"></feMergeNode>
      <feMergeNode in="OUTLINE_40"></feMergeNode>
    </feMerge>
  </filter>
</defs>
<g filter="url(#editing-scratch)"><g transform="translate(37.00000610202551, 97.125)"><path d="M20.35-23.10L20.35-23.10L20.35-23.10Q21.10-24.60 21.10-26L21.10-26L21.10-26Q21.10-27.40 20.95-28.18L20.95-28.18L20.95-28.18Q20.80-28.95 20.45-29.55L20.45-29.55L20.45-29.55Q19.70-30.85 18.20-30.85L18.20-30.85L18.20-30.85Q16.35-30.85 14.85-29.50L14.85-29.50L14.85-29.50Q13.25-28.10 13.25-25.90L13.25-25.90L13.25-25.90Q13.25-24.50 14.23-23.43L14.23-23.43L14.23-23.43Q15.20-22.35 16.70-21.35L16.70-21.35L16.70-21.35Q18.20-20.35 19.90-19.35L19.90-19.35L19.90-19.35Q21.60-18.35 23.10-17.15L23.10-17.15L23.10-17.15Q26.55-14.40 26.55-10.70L26.55-10.70L26.55-10.70Q26.55-8.20 25.23-6.08L25.23-6.08L25.23-6.08Q23.90-3.95 21.70-2.40L21.70-2.40L21.70-2.40Q16.90 1 10.55 1L10.55 1L10.55 1Q5.40 1 2.75-0.68L2.75-0.68L2.75-0.68Q0.10-2.35 0.10-4.90L0.10-4.90L0.10-4.90Q0.10-9.45 3.65-10.60L3.65-10.60L3.65-10.60Q4.65-10.95 6.18-10.95L6.18-10.95L6.18-10.95Q7.70-10.95 9.45-10.30L9.45-10.30L9.45-10.30Q8.65-8.25 8.65-6.40L8.65-6.40L8.65-6.40Q8.65-2.40 11.50-2.40L11.50-2.40L11.50-2.40Q13.35-2.40 14.88-3.75L14.88-3.75L14.88-3.75Q16.40-5.10 16.40-6.63L16.40-6.63L16.40-6.63Q16.40-8.15 15.43-9.25L15.43-9.25L15.43-9.25Q14.45-10.35 13-11.23L13-11.23L13-11.23Q11.55-12.10 9.88-12.95L9.88-12.95L9.88-12.95Q8.20-13.80 6.75-15L6.75-15L6.75-15Q3.35-17.75 3.35-22.15L3.35-22.15L3.35-22.15Q3.35-25 4.75-27.23L4.75-27.23L4.75-27.23Q6.15-29.45 8.40-30.95L8.40-30.95L8.40-30.95Q12.90-34 18.43-34L18.43-34L18.43-34Q23.95-34 26.63-32.35L26.63-32.35L26.63-32.35Q29.30-30.70 29.30-27.90L29.30-27.90L29.30-27.90Q29.30-25.45 27.40-23.90L27.40-23.90L27.40-23.90Q25.75-22.60 23.75-22.60L23.75-22.60L23.75-22.60Q21.75-22.60 20.35-23.10ZM24.05 6.90L24.05 6.90L24.05 6.90Q26.60 6.60 28.20 3.30L28.20 3.30L28.20 3.30Q29.85-0.05 31.35-7.75L31.35-7.75L36.20-33L47.05-33L42.20-7.75L42.20-7.75Q40.35 2.05 37.30 5.90L37.30 5.90L37.30 5.90Q35.70 7.90 33.67 8.70L33.67 8.70L33.67 8.70Q31.65 9.50 29.45 9.50L29.45 9.50L29.45 9.50Q27.25 9.50 25.82 8.70L25.82 8.70L25.82 8.70Q24.40 7.90 24.05 6.90ZM67.65-23.10L67.65-23.10L67.65-23.10Q68.40-24.60 68.40-26L68.40-26L68.40-26Q68.40-27.40 68.25-28.18L68.25-28.18L68.25-28.18Q68.10-28.95 67.75-29.55L67.75-29.55L67.75-29.55Q67-30.85 65.50-30.85L65.50-30.85L65.50-30.85Q63.65-30.85 62.15-29.50L62.15-29.50L62.15-29.50Q60.55-28.10 60.55-25.90L60.55-25.90L60.55-25.90Q60.55-24.50 61.52-23.43L61.52-23.43L61.52-23.43Q62.50-22.35 64-21.35L64-21.35L64-21.35Q65.50-20.35 67.20-19.35L67.20-19.35L67.20-19.35Q68.90-18.35 70.40-17.15L70.40-17.15L70.40-17.15Q73.85-14.40 73.85-10.70L73.85-10.70L73.85-10.70Q73.85-8.20 72.53-6.08L72.53-6.08L72.53-6.08Q71.20-3.95 69-2.40L69-2.40L69-2.40Q64.20 1 57.85 1L57.85 1L57.85 1Q52.70 1 50.05-0.68L50.05-0.68L50.05-0.68Q47.40-2.35 47.40-4.90L47.40-4.90L47.40-4.90Q47.40-9.45 50.95-10.60L50.95-10.60L50.95-10.60Q51.95-10.95 53.47-10.95L53.47-10.95L53.47-10.95Q55-10.95 56.75-10.30L56.75-10.30L56.75-10.30Q55.95-8.25 55.95-6.40L55.95-6.40L55.95-6.40Q55.95-2.40 58.80-2.40L58.80-2.40L58.80-2.40Q60.65-2.40 62.17-3.75L62.17-3.75L62.17-3.75Q63.70-5.10 63.70-6.63L63.70-6.63L63.70-6.63Q63.70-8.15 62.72-9.25L62.72-9.25L62.72-9.25Q61.75-10.35 60.30-11.23L60.30-11.23L60.30-11.23Q58.85-12.10 57.17-12.95L57.17-12.95L57.17-12.95Q55.50-13.80 54.05-15L54.05-15L54.05-15Q50.65-17.75 50.65-22.15L50.65-22.15L50.65-22.15Q50.65-25 52.05-27.23L52.05-27.23L52.05-27.23Q53.45-29.45 55.70-30.95L55.70-30.95L55.70-30.95Q60.20-34 65.72-34L65.72-34L65.72-34Q71.25-34 73.92-32.35L73.92-32.35L73.92-32.35Q76.60-30.70 76.60-27.90L76.60-27.90L76.60-27.90Q76.60-25.45 74.70-23.90L74.70-23.90L74.70-23.90Q73.05-22.60 71.05-22.60L71.05-22.60L71.05-22.60Q69.05-22.60 67.65-23.10ZM91.95-24.35L91.95-24.35L91.95-24.35Q90.25-25.65 90.25-28.43L90.25-28.43L90.25-28.43Q90.25-31.20 92.07-32.65L92.07-32.65L92.07-32.65Q93.90-34.10 97.05-34.10L97.05-34.10L97.05-34.10Q99.05-34.10 103.80-33.40L103.80-33.40L107.20-32.90L107.20-32.90Q108.90-32.70 110.67-32.70L110.67-32.70L110.67-32.70Q112.45-32.70 113.65-33.45L113.65-33.45L113.65-33.45Q115.45-31.85 115.45-29.55L115.45-29.55L115.45-29.55Q115.45-27.25 113.40-25.60L113.40-25.60L113.40-25.60Q111.30-23.85 108.60-23.85L108.60-23.85L108.60-23.85Q107.30-23.85 105.20-24.20L105.20-24.20L105.20-24.20Q102.75-16.50 102.75-11.15L102.75-11.15L102.75-11.15Q102.75-5.80 105.45-3L105.45-3L105.45-3Q104.20-0.75 102.35 0.13L102.35 0.13L102.35 0.13Q100.50 1 97.72 1L97.72 1L97.72 1Q94.95 1 93.22-0.53L93.22-0.53L93.22-0.53Q91.50-2.05 91.50-5.20L91.50-5.20L91.50-5.20Q91.50-8.85 93.50-14.85L93.50-14.85L93.50-14.85Q95.50-20.80 98.50-25.35L98.50-25.35L98.50-25.35Q97.05-25.50 95.55-25.50L95.55-25.50L95.55-25.50Q92.45-25.50 91.95-24.35ZM135 1L135 1L135 1Q128.60 1 128-8.10L128-8.10L119.40-8.10L119.40-8.10Q118.40-5.80 117.70-3.80L117.70-3.80L116.40 0L109.40 0L125.15-33L135.90-33L138-8.70L138-8.70Q138.50-3.45 140.50-1.90L140.50-1.90L140.50-1.90Q139.05 1 135 1ZM123.70-18.10L120.95-11.75L127.85-11.75L127.25-24.60L127.25-25.95L123.70-18.10ZM164.30-7.70L164.30-7.70L164.30-7.70Q165.25-6.50 165.25-4.17L165.25-4.17L165.25-4.17Q165.25-1.85 163.48-0.43L163.48-0.43L163.48-0.43Q161.70 1 158.60 1L158.60 1L158.60 1Q156.80 1 154 0.60L154 0.60L154 0.60Q148.50-0.25 146.93-0.25L146.93-0.25L146.93-0.25Q145.35-0.25 144.70-0.18L144.70-0.18L144.70-0.18Q144.05-0.10 143 0L143 0L149.05-33L160-33L155-5.50L155-5.50Q155.65-5.40 156.25-5.40L156.25-5.40L157.50-5.40L157.50-5.40Q161.70-5.40 164.30-7.70ZM189.95-7.70L189.95-7.70L189.95-7.70Q190.90-6.50 190.90-4.55L190.90-4.55L190.90-4.55Q190.90-1.85 188.90-0.43L188.90-0.43L188.90-0.43Q186.90 1 183.75 1L183.75 1L183.75 1Q181.95 1 179.20 0.60L179.20 0.60L179.20 0.60Q173.80-0.25 172.15-0.25L172.15-0.25L172.15-0.25Q170.50-0.25 169.85-0.18L169.85-0.18L169.85-0.18Q169.20-0.10 168.15 0L168.15 0L174.30-33L195.85-33L195.85-33Q195.85-29.95 194.38-28.35L194.38-28.35L194.38-28.35Q192.90-26.75 190-26.75L190-26.75L190-26.75Q187.10-26.75 184.15-28.10L184.15-28.10L182.60-19.35L191.50-19.35L191.50-19.35Q191.50-16.70 190.20-15.23L190.20-15.23L190.20-15.23Q188.90-13.75 186.72-13.75L186.72-13.75L186.72-13.75Q184.55-13.75 183.20-14.25L183.20-14.25L183.20-14.25Q181.85-14.75 181.70-14.90L181.70-14.90L179.90-5.45L179.90-5.45Q181.10-5.30 183.35-5.30L183.35-5.30L183.35-5.30Q187.20-5.30 189.95-7.70ZM200.65 0L195.15 0L201.15-33L211.90-33L219.70-10.30L223.85-33L229.40-32.95L223.30 0L211.85 0L204.65-21.85L200.65 0ZM234.65-24.35L234.65-24.35L234.65-24.35Q232.95-25.65 232.95-28.43L232.95-28.43L232.95-28.43Q232.95-31.20 234.78-32.65L234.78-32.65L234.78-32.65Q236.60-34.10 239.75-34.10L239.75-34.10L239.75-34.10Q241.75-34.10 246.50-33.40L246.50-33.40L249.90-32.90L249.90-32.90Q251.60-32.70 253.38-32.70L253.38-32.70L253.38-32.70Q255.15-32.70 256.35-33.45L256.35-33.45L256.35-33.45Q258.15-31.85 258.15-29.55L258.15-29.55L258.15-29.55Q258.15-27.25 256.10-25.60L256.10-25.60L256.10-25.60Q254-23.85 251.30-23.85L251.30-23.85L251.30-23.85Q250-23.85 247.90-24.20L247.90-24.20L247.90-24.20Q245.45-16.50 245.45-11.15L245.45-11.15L245.45-11.15Q245.45-5.80 248.15-3L248.15-3L248.15-3Q246.90-0.75 245.05 0.13L245.05 0.13L245.05 0.13Q243.20 1 240.43 1L240.43 1L240.43 1Q237.65 1 235.93-0.53L235.93-0.53L235.93-0.53Q234.20-2.05 234.20-5.20L234.20-5.20L234.20-5.20Q234.20-8.85 236.20-14.85L236.20-14.85L236.20-14.85Q238.20-20.80 241.20-25.35L241.20-25.35L241.20-25.35Q239.75-25.50 238.25-25.50L238.25-25.50L238.25-25.50Q235.15-25.50 234.65-24.35ZM266.90 0L256 0L262.35-33L273.35-33L266.90 0ZM296.40 1L296.40 1L296.40 1Q290 1 289.40-8.10L289.40-8.10L280.80-8.10L280.80-8.10Q279.80-5.80 279.10-3.80L279.10-3.80L277.80 0L270.80 0L286.55-33L297.30-33L299.40-8.70L299.40-8.70Q299.90-3.45 301.90-1.90L301.90-1.90L301.90-1.90Q300.45 1 296.40 1ZM285.10-18.10L282.35-11.75L289.25-11.75L288.65-24.60L288.65-25.95L285.10-18.10ZM315.00-1.25L314.70-7.40L320.95-12.20L324.85-15.40L324.85-15.40Q326.85-17.10 328.30-18.60L328.30-18.60L328.30-18.60Q330.95-21.25 330.95-23.80L330.95-23.80L330.95-23.80Q330.95-25.30 329.98-26.10L329.98-26.10L329.98-26.10Q329.00-26.90 327.58-26.90L327.58-26.90L327.58-26.90Q326.15-26.90 325.13-26.58L325.13-26.58L325.13-26.58Q324.10-26.25 323.20-25.70L323.20-25.70L323.20-25.70Q321.30-24.45 320.40-22.55L320.40-22.55L320.40-22.55Q319.15-22.60 318.33-23.65L318.33-23.65L318.33-23.65Q317.50-24.70 317.50-26.23L317.50-26.23L317.50-26.23Q317.50-27.75 318.45-29.18L318.45-29.18L318.45-29.18Q319.40-30.60 321.10-31.70L321.10-31.70L321.10-31.70Q324.80-34 329.88-34L329.88-34L329.88-34Q334.95-34 337.80-31.80L337.80-31.80L337.80-31.80Q340.65-29.60 340.65-25.85L340.65-25.85L340.65-25.85Q340.65-23.05 339.28-20.50L339.28-20.50L339.28-20.50Q337.90-17.95 334.25-15.35L334.25-15.35L328.85-11.55L325.60-9.40L321.45-6.85L323.20-6.65L323.20-6.65Q324.40-6.50 326.50-6.50L326.50-6.50L326.50-6.50Q328.60-6.50 330.35-6.73L330.35-6.73L330.35-6.73Q332.10-6.95 333.60-7.40L333.60-7.40L333.60-7.40Q336.90-8.30 337.95-9.55L337.95-9.55L337.95-9.55Q338.50-9.15 338.93-8.13L338.93-8.13L338.93-8.13Q339.35-7.10 339.35-5.85L339.35-5.85L339.35-5.85Q339.35-2.10 336.50-0.55L336.50-0.55L336.50-0.55Q333.65 1 327.80 1L327.80 1L327.80 1Q324.75 1 320.70 0.13L320.70 0.13L320.70 0.13Q316.65-0.75 315.00-1.25L315.00-1.25ZM343.95-11.90L343.95-11.90L343.95-11.90Q343.95-22 348.70-28L348.70-28L348.70-28Q353.45-34 361.60-34L361.60-34L361.60-34Q365.95-34 368.45-30.75L368.45-30.75L368.45-30.75Q370.95-27.50 370.95-22.08L370.95-22.08L370.95-22.08Q370.95-16.65 369.73-12.43L369.73-12.43L369.73-12.43Q368.50-8.20 366.30-5.20L366.30-5.20L366.30-5.20Q361.70 1.05 354.05 1.05L354.05 1.05L354.05 1.05Q348.90 1.05 346.43-2.13L346.43-2.13L346.43-2.13Q343.95-5.30 343.95-11.90ZM352.80-8.50L352.80-8.50L352.80-8.50Q352.80-3.45 354.45-3.45L354.45-3.45L354.45-3.45Q355.95-3.45 357.33-5.20L357.33-5.20L357.33-5.20Q358.70-6.95 359.80-9.90L359.80-9.90L359.80-9.90Q362.15-16.35 362.15-24.35L362.15-24.35L362.15-24.35Q362.15-27.05 361.73-28.28L361.73-28.28L361.73-28.28Q361.30-29.50 360.18-29.50L360.18-29.50L360.18-29.50Q359.05-29.50 357.73-27.55L357.73-27.55L357.73-27.55Q356.40-25.60 355.30-22.55L355.30-22.55L355.30-22.55Q352.80-15.60 352.80-8.50ZM373.25-1.25L372.95-7.40L379.20-12.20L383.10-15.40L383.10-15.40Q385.10-17.10 386.55-18.60L386.55-18.60L386.55-18.60Q389.20-21.25 389.20-23.80L389.20-23.80L389.20-23.80Q389.20-25.30 388.23-26.10L388.23-26.10L388.23-26.10Q387.25-26.90 385.83-26.90L385.83-26.90L385.83-26.90Q384.40-26.90 383.38-26.58L383.38-26.58L383.38-26.58Q382.35-26.25 381.45-25.70L381.45-25.70L381.45-25.70Q379.55-24.45 378.65-22.55L378.65-22.55L378.65-22.55Q377.40-22.60 376.58-23.65L376.58-23.65L376.58-23.65Q375.75-24.70 375.75-26.23L375.75-26.23L375.75-26.23Q375.75-27.75 376.70-29.18L376.70-29.18L376.70-29.18Q377.65-30.60 379.35-31.70L379.35-31.70L379.35-31.70Q383.05-34 388.13-34L388.13-34L388.13-34Q393.20-34 396.05-31.80L396.05-31.80L396.05-31.80Q398.90-29.60 398.90-25.85L398.90-25.85L398.90-25.85Q398.90-23.05 397.53-20.50L397.53-20.50L397.53-20.50Q396.15-17.95 392.50-15.35L392.50-15.35L387.10-11.55L383.85-9.40L379.70-6.85L381.45-6.65L381.45-6.65Q382.65-6.50 384.75-6.50L384.75-6.50L384.75-6.50Q386.85-6.50 388.60-6.73L388.60-6.73L388.60-6.73Q390.35-6.95 391.85-7.40L391.85-7.40L391.85-7.40Q395.15-8.30 396.20-9.55L396.20-9.55L396.20-9.55Q396.75-9.15 397.18-8.13L397.18-8.13L397.18-8.13Q397.60-7.10 397.60-5.85L397.60-5.85L397.60-5.85Q397.60-2.10 394.75-0.55L394.75-0.55L394.75-0.55Q391.90 1 386.05 1L386.05 1L386.05 1Q383.00 1 378.95 0.13L378.95 0.13L378.95 0.13Q374.90-0.75 373.25-1.25L373.25-1.25ZM410.85-25.25L409.45-20.55L409.45-20.55Q412.35-20.80 414.15-20.80L414.15-20.80L414.15-20.80Q415.95-20.80 417.85-20.15L417.85-20.15L417.85-20.15Q419.75-19.50 421.15-18.40L421.15-18.40L421.15-18.40Q424.25-15.95 424.25-12.83L424.25-12.83L424.25-12.83Q424.25-9.70 423.13-7.20L423.13-7.20L423.13-7.20Q422.00-4.70 420.05-2.90L420.05-2.90L420.05-2.90Q415.90 1 409.60 1L409.60 1L409.60 1Q405.05 1 402.65-0.45L402.65-0.45L402.65-0.45Q400.25-1.90 400.25-4.67L400.25-4.67L400.25-4.67Q400.25-7.45 402.00-8.95L402.00-8.95L402.00-8.95Q404.10-5.40 408.55-5.40L408.55-5.40L408.55-5.40Q411.25-5.40 412.75-6.65L412.75-6.65L412.75-6.65Q414.25-7.90 414.25-10.30L414.25-10.30L414.25-10.30Q414.25-15.10 407.30-15.10L407.30-15.10L407.30-15.10Q404.65-15.10 402.95-14.90L402.95-14.90L407.65-33L419.40-33L419.40-33Q423.35-33 424.60-34.75L424.60-34.75L424.60-34.75Q425.90-33.60 425.90-31.05L425.90-31.05L425.90-31.05Q425.90-28.65 424.00-26.95L424.00-26.95L424.00-26.95Q422.10-25.25 419.40-25.25L419.40-25.25L410.85-25.25Z" fill="#000"></path></g></g><style>text {
  font-size: 64px;
  font-family: Arial Black;
  dominant-baseline: central;
  text-anchor: middle;
}</style></svg>